<mxfile host="app.diagrams.net" agent="Mozilla/5.0 (Windows NT 10.0; Win64; x64) AppleWebKit/537.36 (KHTML, like Gecko) Chrome/128.0.0.0 Safari/537.36 Edg/128.0.0.0" version="24.7.14">
  <diagram id="WI9T0HZ2pTsCkuznbFz-" name="Page-1">
    <mxGraphModel grid="1" page="1" gridSize="10" guides="1" tooltips="1" connect="1" arrows="1" fold="1" pageScale="1" pageWidth="1169" pageHeight="827" math="0" shadow="0">
      <root>
        <mxCell id="0" />
        <mxCell id="1" parent="0" />
        <mxCell id="G0Cbh7PXOb3_7g-0Xa-d-3" value="" style="edgeStyle=orthogonalEdgeStyle;rounded=0;orthogonalLoop=1;jettySize=auto;html=1;" edge="1" parent="1" source="G0Cbh7PXOb3_7g-0Xa-d-2" target="G0Cbh7PXOb3_7g-0Xa-d-1">
          <mxGeometry relative="1" as="geometry" />
        </mxCell>
        <mxCell id="G0Cbh7PXOb3_7g-0Xa-d-5" value="" style="edgeStyle=orthogonalEdgeStyle;rounded=0;orthogonalLoop=1;jettySize=auto;html=1;" edge="1" parent="1" source="G0Cbh7PXOb3_7g-0Xa-d-1" target="G0Cbh7PXOb3_7g-0Xa-d-4">
          <mxGeometry relative="1" as="geometry" />
        </mxCell>
        <mxCell id="G0Cbh7PXOb3_7g-0Xa-d-1" value="Blob - Raw File" style="verticalLabelPosition=bottom;html=1;verticalAlign=top;align=center;strokeColor=none;fillColor=#00BEF2;shape=mxgraph.azure.storage_blob;" vertex="1" parent="1">
          <mxGeometry x="212.5" y="260" width="50" height="45" as="geometry" />
        </mxCell>
        <mxCell id="G0Cbh7PXOb3_7g-0Xa-d-2" value="&lt;font style=&quot;font-size: 14px;&quot;&gt;&lt;font style=&quot;&quot;&gt;Dag&lt;/font&gt;&lt;br&gt;&lt;a style=&quot;box-sizing: border-box; background-color: rgb(245, 245, 245); color: rgb(54, 95, 132); text-decoration-line: none; font-family: &amp;quot;Helvetica Neue&amp;quot;, Helvetica, Arial, sans-serif; text-align: start;&quot; data-original-title=&quot;Atividade DAG para ingestao de dados do KAGGLE para AZURE&quot; title=&quot;&quot; href=&quot;http://13.90.96.10:8080/dags/SERASA_GET_DATASET_KAGGLE_SEND_AZURE/grid&quot;&gt;&lt;span style=&quot;box-sizing: border-box; font-weight: 700;&quot;&gt;SERASA_GET_DATASET_KAGGLE_SEND_AZURE&lt;/span&gt;&lt;/a&gt;&lt;/font&gt;" style="whiteSpace=wrap;html=1;verticalAlign=top;fillColor=#00BEF2;strokeColor=none;" vertex="1" parent="1">
          <mxGeometry x="62.5" y="120" width="350" height="60" as="geometry" />
        </mxCell>
        <mxCell id="G0Cbh7PXOb3_7g-0Xa-d-7" style="edgeStyle=orthogonalEdgeStyle;rounded=0;orthogonalLoop=1;jettySize=auto;html=1;" edge="1" parent="1" source="G0Cbh7PXOb3_7g-0Xa-d-4" target="G0Cbh7PXOb3_7g-0Xa-d-6">
          <mxGeometry relative="1" as="geometry" />
        </mxCell>
        <mxCell id="G0Cbh7PXOb3_7g-0Xa-d-4" value="Dag&lt;br&gt;&lt;a style=&quot;box-sizing: border-box; background-color: rgb(245, 245, 245); color: rgb(1, 124, 238); text-decoration-line: none; outline: 0px; font-family: &amp;quot;Helvetica Neue&amp;quot;, Helvetica, Arial, sans-serif; font-size: 14px; text-align: start;&quot; aria-describedby=&quot;tooltip996376&quot; data-original-title=&quot;Atividade DAG para ingestao de dados no Kafka&quot; title=&quot;&quot; href=&quot;http://13.90.96.10:8080/dags/SERASA_RAW_FILE_PRODUCER_KAFKA/grid&quot;&gt;&lt;span style=&quot;box-sizing: border-box; font-weight: 700;&quot;&gt;SERASA_RAW_FILE_PRODUCER_KAFKA&lt;/span&gt;&lt;/a&gt;" style="whiteSpace=wrap;html=1;verticalAlign=top;fillColor=#00BEF2;strokeColor=none;" vertex="1" parent="1">
          <mxGeometry x="435" y="253.75" width="300" height="57.5" as="geometry" />
        </mxCell>
        <mxCell id="G0Cbh7PXOb3_7g-0Xa-d-9" value="" style="edgeStyle=orthogonalEdgeStyle;rounded=0;orthogonalLoop=1;jettySize=auto;html=1;" edge="1" parent="1" source="G0Cbh7PXOb3_7g-0Xa-d-6" target="G0Cbh7PXOb3_7g-0Xa-d-10">
          <mxGeometry relative="1" as="geometry">
            <mxPoint x="668" y="419" as="targetPoint" />
          </mxGeometry>
        </mxCell>
        <mxCell id="G0Cbh7PXOb3_7g-0Xa-d-6" value="&lt;font style=&quot;font-size: 14px;&quot;&gt;topic_new_york_taxis&lt;/font&gt;" style="sketch=0;points=[[0,0,0],[0.25,0,0],[0.5,0,0],[0.75,0,0],[1,0,0],[0,1,0],[0.25,1,0],[0.5,1,0],[0.75,1,0],[1,1,0],[0,0.25,0],[0,0.5,0],[0,0.75,0],[1,0.25,0],[1,0.5,0],[1,0.75,0]];outlineConnect=0;fontColor=#232F3E;fillColor=#8C4FFF;strokeColor=#ffffff;dashed=0;verticalLabelPosition=bottom;verticalAlign=top;align=center;html=1;fontSize=12;fontStyle=0;aspect=fixed;shape=mxgraph.aws4.resourceIcon;resIcon=mxgraph.aws4.managed_streaming_for_kafka;" vertex="1" parent="1">
          <mxGeometry x="546" y="380" width="78" height="78" as="geometry" />
        </mxCell>
        <mxCell id="G0Cbh7PXOb3_7g-0Xa-d-18" style="edgeStyle=orthogonalEdgeStyle;rounded=0;orthogonalLoop=1;jettySize=auto;html=1;" edge="1" parent="1" source="G0Cbh7PXOb3_7g-0Xa-d-10" target="G0Cbh7PXOb3_7g-0Xa-d-17">
          <mxGeometry relative="1" as="geometry" />
        </mxCell>
        <mxCell id="G0Cbh7PXOb3_7g-0Xa-d-10" value="Dag&lt;br&gt;&lt;a style=&quot;box-sizing: border-box; background-color: rgb(245, 245, 245); color: rgb(1, 124, 238); text-decoration-line: none; outline: 0px; font-family: &amp;quot;Helvetica Neue&amp;quot;, Helvetica, Arial, sans-serif; font-size: 14px; text-align: start;&quot; aria-describedby=&quot;tooltip996376&quot; data-original-title=&quot;Atividade DAG para ingestao de dados no Kafka&quot; title=&quot;&quot; href=&quot;http://13.90.96.10:8080/dags/SERASA_READ_PRODUCER_KAFKA_FILTER_SCALA_SPARK/grid&quot;&gt;&lt;span style=&quot;box-sizing: border-box; font-weight: 700;&quot;&gt;SERASA_READ_PRODUCER_KAFKA_FILTER_SCALA_SPARK&lt;/span&gt;&lt;/a&gt;" style="whiteSpace=wrap;html=1;verticalAlign=top;fillColor=#8c4fff;strokeColor=none;" vertex="1" parent="1">
          <mxGeometry x="690" y="394.13" width="490" height="49.75" as="geometry" />
        </mxCell>
        <mxCell id="G0Cbh7PXOb3_7g-0Xa-d-13" value="Files Ready" style="shape=image;verticalLabelPosition=bottom;labelBackgroundColor=#ffffff;verticalAlign=top;aspect=fixed;imageAspect=0;image=data:image/svg+xml,PHN2ZyB4bWxuczpjYz0iaHR0cDovL2NyZWF0aXZlY29tbW9ucy5vcmcvbnMjIiB4bWxuczpkYz0iaHR0cDovL3B1cmwub3JnL2RjL2VsZW1lbnRzLzEuMS8iIHhtbG5zOmlua3NjYXBlPSJodHRwOi8vd3d3Lmlua3NjYXBlLm9yZy9uYW1lc3BhY2VzL2lua3NjYXBlIiB4bWxuczpyZGY9Imh0dHA6Ly93d3cudzMub3JnLzE5OTkvMDIvMjItcmRmLXN5bnRheC1ucyMiIHhtbG5zOnNvZGlwb2RpPSJodHRwOi8vc29kaXBvZGkuc291cmNlZm9yZ2UubmV0L0RURC9zb2RpcG9kaS0wLmR0ZCIgeG1sbnM6c3ZnPSJodHRwOi8vd3d3LnczLm9yZy8yMDAwL3N2ZyIgeG1sbnM9Imh0dHA6Ly93d3cudzMub3JnLzIwMDAvc3ZnIiB4bWxuczp4bGluaz0iaHR0cDovL3d3dy53My5vcmcvMTk5OS94bGluayIgdmVyc2lvbj0iMS4xIiBpZD0ic3ZnMTA5Mjk0IiBpbmtzY2FwZTp2ZXJzaW9uPSIwLjkyLjMgKDI0MDU1NDYsIDIwMTgtMDMtMTEpIiBzb2RpcG9kaTpkb2NuYW1lPSJhenVyZV9ibG9iX3N0b3JhZ2Uuc3ZnIiB4PSIwcHgiIHk9IjBweCIgdmlld0JveD0iMCAwIDc2LjQyIDY2LjMiIHN0eWxlPSJlbmFibGUtYmFja2dyb3VuZDpuZXcgMCAwIDc2LjQyIDY2LjM7IiB4bWw6c3BhY2U9InByZXNlcnZlIj4mI3hhOzxzb2RpcG9kaTpuYW1lZHZpZXcgYm9yZGVyY29sb3I9IiM2NjY2NjYiIGJvcmRlcm9wYWNpdHk9IjEiIGZpdC1tYXJnaW4tYm90dG9tPSIwIiBmaXQtbWFyZ2luLWxlZnQ9IjAiIGZpdC1tYXJnaW4tcmlnaHQ9IjAiIGZpdC1tYXJnaW4tdG9wPSIwIiBncmlkdG9sZXJhbmNlPSIxMCIgZ3VpZGV0b2xlcmFuY2U9IjEwIiBpZD0ibmFtZWR2aWV3MTA5Mjk2IiBpbmtzY2FwZTpjdXJyZW50LWxheWVyPSJzdmcxMDkyOTQiIGlua3NjYXBlOmN4PSI1MC45NDUxOTMiIGlua3NjYXBlOmN5PSI0NC4xOTk1NTEiIGlua3NjYXBlOnBhZ2VvcGFjaXR5PSIwIiBpbmtzY2FwZTpwYWdlc2hhZG93PSIyIiBpbmtzY2FwZTp3aW5kb3ctaGVpZ2h0PSIxMDE3IiBpbmtzY2FwZTp3aW5kb3ctbWF4aW1pemVkPSIxIiBpbmtzY2FwZTp3aW5kb3ctd2lkdGg9IjE5MjAiIGlua3NjYXBlOndpbmRvdy14PSItOCIgaW5rc2NhcGU6d2luZG93LXk9Ii04IiBpbmtzY2FwZTp6b29tPSI4Ljc0NjA0MTEiIG9iamVjdHRvbGVyYW5jZT0iMTAiIHBhZ2Vjb2xvcj0iI2ZmZmZmZiIgc2hvd2dyaWQ9ImZhbHNlIj4mI3hhOwk8L3NvZGlwb2RpOm5hbWVkdmlldz4mI3hhOzxnIGlkPSJnMTA5MjkyIiB0cmFuc2Zvcm09InRyYW5zbGF0ZSgtNC4wMjYzMiwtNC4wMjM4NzY1KSI+JiN4YTsJPHRpdGxlIGlkPSJ0aXRsZTEwOTI2NCI+UGFnZS0xPC90aXRsZT4mI3hhOwk8ZyBpZD0iZ3JvdXAyNjQtMSIgdHJhbnNmb3JtPSJ0cmFuc2xhdGUoNC4wMjYzMiwtNC4wMjYzMikiPiYjeGE7CQk8dGl0bGUgaWQ9InRpdGxlMTA5MjY2Ij5BenVyZSBCbG9iIFN0b3JhZ2UgKERlcHJlY2F0ZWQpPC90aXRsZT4mI3hhOwkJPGcgaWQ9Imdyb3VwMjY1LTIiPiYjeGE7CQkJPHRpdGxlIGlkPSJ0aXRsZTEwOTI2OCI+U2hlZXQuMjY1PC90aXRsZT4mI3hhOwkJCTxnIGlkPSJzaGFwZTI2Ni0zIj4mI3hhOwkJCQk8dGl0bGUgaWQ9InRpdGxlMTA5MjcwIj5TaGVldC4yNjY8L3RpdGxlPiYjeGE7CQkJCTxwYXRoIGlkPSJwYXRoMTA5MjcyIiBpbmtzY2FwZTpjb25uZWN0b3ItY3VydmF0dXJlPSIwIiBzdHlsZT0iZmlsbDojMDA3OEQ3OyIgZD0iTTU3LjM2LDguMDVIMTkuMDVMMCw0MS4ybDE5LjA1LDMzLjE1aDM4LjMxICAgICAgTDc2LjQyLDQxLjJMNTcuMzYsOC4wNXogTTU3LjU2LDU2LjA5YzAsMi43OC0yLjM4LDUuMTYtNS4xNiw1LjE2SDI0LjIyYy0yLjc4LDAtNS4xNy0yLjM4LTUuMTctNS4xNlYyNi41MSAgICAgIGMwLTIuNzgsMi4zOS01LjE2LDUuMTctNS4xNmgyMC44NGMxLjk4LDAsMy45NywwLDMuOTcsMGgwLjU5bDcuOTQsNy45NHY0LjE3TDU3LjU2LDU2LjA5eiIvPiYjeGE7CQkJPC9nPiYjeGE7CQkJPGcgaWQ9InNoYXBlMjY3LTUiIHRyYW5zZm9ybT0idHJhbnNsYXRlKDMyLjE1NTEsLTIxLjQzNjgpIj4mI3hhOwkJCQk8dGl0bGUgaWQ9InRpdGxlMTA5Mjc1Ij5TaGVldC4yNjc8L3RpdGxlPiYjeGE7CQkJCTxwYXRoIGlkPSJwYXRoMTA5Mjc3IiBpbmtzY2FwZTpjb25uZWN0b3ItY3VydmF0dXJlPSIwIiBzdHlsZT0iZmlsbDojMDA3OEQ3OyIgZD0iTTMuMTgsNjhjMC0wLjQtMC4yLTAuNi0wLjItMC44ICAgICAgYzAtMC4yLTAuMi0wLjM5LTAuNC0wLjU5cy0wLjItMC4yLTAuNC0wLjJzLTAuMzksMC0wLjU5LDBjLTAuNCwwLTAuNiwwLTAuOCwwLjJDMC42LDY2LjgxLDAuNCw2NywwLjIsNjcuNFMwLDY4LjE5LDAsNjguNTkgICAgICBjMCwwLjQsMCwwLjk5LDAsMS43OWMwLDAuNzksMCwxLjM5LDAsMS45OGMwLDAuNiwwLjIsMSwwLjQsMS4xOWMwLjIsMC40LDAuMzksMC42LDAuNTksMC42YzAuMiwwLjIsMC40LDAuMiwwLjgsMC4yICAgICAgYzAuMTksMCwwLjM5LDAsMC41OS0wLjJjMC4yLDAsMC40LTAuMiwwLjQtMC40YzAuMi0wLjIsMC4yLTAuMzksMC40LTAuNTljMC0wLjIsMC4xOS0wLjQsMC4xOS0wLjhjMC0wLjIsMC0wLjU5LDAuMi0wLjk5ICAgICAgYzAtMC40LDAtMC43OSwwLTEuMTljMC0wLjYsMC0wLjk5LDAtMS4zOUMzLjE4LDY4LjU5LDMuMTgsNjguMzksMy4xOCw2OHoiLz4mI3hhOwkJCTwvZz4mI3hhOwkJCTxnIGlkPSJzaGFwZTI2OC03IiB0cmFuc2Zvcm09InRyYW5zbGF0ZSg0MS4wODcxLC0zNi45MTg5KSI+JiN4YTsJCQkJPHRpdGxlIGlkPSJ0aXRsZTEwOTI4MCI+U2hlZXQuMjY4PC90aXRsZT4mI3hhOwkJCQk8cGF0aCBpZD0icGF0aDEwOTI4MiIgaW5rc2NhcGU6Y29ubmVjdG9yLWN1cnZhdHVyZT0iMCIgc3R5bGU9ImZpbGw6IzAwNzhENzsiIGQ9Ik0zLjE4LDY4YzAtMC40LTAuMi0wLjYtMC4yLTAuOCAgICAgIGMwLTAuMi0wLjItMC4zOS0wLjQtMC41OXMtMC4yLTAuMi0wLjQtMC4ycy0wLjM5LDAtMC41OSwwYy0wLjQsMC0wLjYsMC0wLjgsMC4yQzAuNiw2Ni44MSwwLjQsNjcsMC4yLDY3LjRTMCw2OC4xOSwwLDY4LjU5ICAgICAgYzAsMC40LDAsMC45OSwwLDEuNzljMCwwLjc5LDAsMS4zOSwwLDEuOThjMCwwLjYsMC4yLDEsMC40LDEuMTljMC4yLDAuNCwwLjM5LDAuNiwwLjU5LDAuNmMwLjIsMC4yLDAuNCwwLjIsMC44LDAuMiAgICAgIGMwLjE5LDAsMC4zOSwwLDAuNTktMC4yYzAuMiwwLDAuNC0wLjIsMC40LTAuNGMwLjItMC4yLDAuMi0wLjM5LDAuNC0wLjU5YzAtMC4yLDAuMTktMC40LDAuMTktMC44YzAtMC4yLDAtMC41OSwwLjItMC45OSAgICAgIGMwLTAuNCwwLTAuNzksMC0xLjE5YzAtMC42LDAtMC45OSwwLTEuMzlDMy4zNyw2OC43OSwzLjM3LDY4LjM5LDMuMTgsNjh6Ii8+JiN4YTsJCQk8L2c+JiN4YTsJCQk8ZyBpZD0ic2hhcGUyNjktOSIgdHJhbnNmb3JtPSJ0cmFuc2xhdGUoMjEuODMzNywtMTUuODc5MSkiPiYjeGE7CQkJCTx0aXRsZSBpZD0idGl0bGUxMDkyODUiPlNoZWV0LjI2OTwvdGl0bGU+JiN4YTsJCQkJPHBhdGggaWQ9InBhdGgxMDkyODciIGlua3NjYXBlOmNvbm5lY3Rvci1jdXJ2YXR1cmU9IjAiIHN0eWxlPSJmaWxsOiMwMDc4RDc7IiBkPSJNMjYuNCw0MC4wMWMtMC43OSwwLTEuOTksMC0zLjE4LDBIMi4zOCAgICAgIEMwLjk5LDQwLjAxLDAsNDEsMCw0Mi4zOXYyOS41OGMwLDEuMzksMC45OSwyLjM4LDIuMzgsMi4zOGgyOC4xOWMxLjE5LDAsMi4zOC0wLjk5LDIuMzgtMi4zOFY0Ni41NkgyNi42di02LjU1SDI2LjR6ICAgICAgIE04LjczLDQ1Ljk2di0wLjE5di0wLjJjMCwwLDAsMCwwLjItMC4ybDIuMzgtMS41OWMwLDAsMCwwLDAuMiwwaDAuMmgwLjJjMC4yLDAsMC4yLDAsMC40LDBjMC4xOSwwLDAuMzksMCwwLjU5LDBzMC4yLDAsMC40LDAgICAgICBoMC4yYzAsMCwwLDAsMCwwLjJ2OS4zM2gxLjc4aDAuMmMwLDAsMCwwLDAuMiwwLjJjMC4yLDAuMTksMCwwLjE5LDAsMC4xOWMwLDAuMiwwLDAuMiwwLDAuNHMwLDAuNCwwLDAuNGMwLDAuMiwwLDAuMiwwLDAuMiAgICAgIHMwLDAuMi0wLjIsMC4yYzAsMCwwLDAtMC4yLDBIOS4xM2MwLDAsMCwwLTAuMiwwYzAsMCwwLDAtMC4yLTAuMnYtMC4yYzAtMC4yLDAtMC4yLDAtMC40czAtMC40LDAtMC40YzAtMC4xOSwwLTAuMTksMC0wLjE5ICAgICAgczAtMC4yLDAuMi0wLjJjMCwwLDAsMCwwLjIsMGgyLjE4di03LjM1bC0xLjc4LDFjLTAuMiwwLTAuMiwwLjE5LTAuNCwwLjE5aC0wLjJjMCwwLDAtMC4xOS0wLjItMC4xOWMwLTAuMiwwLTAuMiwwLTAuNiAgICAgIEM4LjczLDQ2LjE2LDguNzMsNDUuOTYsOC43Myw0NS45NnogTTE1LjY4LDY3LjJjLTAuMiwwLjgtMC40LDEuMzktMC43OSwxLjc5Yy0wLjQsMC41OS0wLjgsMC45OS0xLjE5LDEuMTkgICAgICBjLTAuNiwwLjItMS4yLDAuNC0xLjk5LDAuNHMtMS4zOS0wLjItMS45OC0wLjRjLTAuNi0wLjItMS0wLjYtMS4xOS0xLjE5Yy0wLjItMC42LTAuNi0xLjE5LTAuNi0xLjc5ICAgICAgYy0wLjItMC43OS0wLjItMS41OS0wLjItMi4zOGMwLTAuOTksMC0xLjc5LDAuMi0yLjM4YzAuMi0wLjgsMC40LTEuMzksMC43OS0xLjc5YzAuNC0wLjM5LDAuOC0wLjk5LDEuMTktMS4xOSAgICAgIGMwLjYtMC4yLDEuMi0wLjQsMS45OS0wLjRzMS4zOSwwLjIsMS45OCwwLjRjMC42LDAuMiwxLDAuNiwxLjIsMS4xOWMwLjE5LDAuNiwwLjU5LDEuMTksMC41OSwxLjc5YzAuMiwwLjc5LDAuMiwxLjU5LDAuMiwyLjM4ICAgICAgQzE1Ljg4LDY1LjgxLDE1Ljg4LDY2LjYxLDE1LjY4LDY3LjJ6IE0yNC42MSw2OS45OGMwLDAuMiwwLDAuMiwwLDAuMnMwLDAuMi0wLjIsMC4yYzAsMCwwLDAtMC4xOSwwaC02LjE2YzAsMCwwLDAtMC4yLDAgICAgICBjMCwwLDAsMC0wLjE5LTAuMnYtMC4yYzAtMC4yLDAtMC4yLDAtMC40YzAtMC4xOSwwLTAuMzksMC0wLjM5YzAtMC4yLDAtMC4yLDAtMC4yczAtMC4yLDAuMTktMC4yYzAsMCwwLDAsMC4yLDBoMi4xOXYtNy4zNCAgICAgIGwtMS43OSwwLjk5Yy0wLjIsMC0wLjIsMC4yLTAuNCwwLjJoLTAuMmMwLDAsMC0wLjItMC4xOS0wLjJjMC0wLjIsMC0wLjIsMC0wLjZjMC0wLjIsMC0wLjIsMC0wLjM5di0wLjJ2LTAuMmMwLDAsMCwwLDAuMTktMC4yICAgICAgbDIuMzktMS41OWMwLDAsMCwwLDAuMTksMGgwLjJoMC4yYzAuMiwwLDAuMiwwLDAuNCwwYzAuMiwwLDAuNCwwLDAuNTksMGMwLjIsMCwwLjIsMCwwLjQsMGgwLjJjMCwwLDAsMCwwLDAuMnY5LjMzaDEuNzloMC4xOSAgICAgIGMwLDAsMCwwLDAuMiwwLjJ2MC4yYzAsMC4yLDAsMC4yLDAsMC4zOUMyNC42MSw2OS43OCwyNC42MSw2OS45OCwyNC42MSw2OS45OHogTTI0LjgxLDUxLjcyYy0wLjIsMC43OS0wLjQsMS4zOS0wLjc5LDEuNzkgICAgICBjLTAuNCwwLjU5LTAuOCwwLjk5LTEuMTksMS4xOWMtMC42LDAuMi0xLjE5LDAuMzktMS45OSwwLjM5Yy0wLjc5LDAtMS4zOS0wLjE5LTEuOTgtMC4zOWMtMC42LTAuMi0xLTAuNi0xLjE5LTEuMTkgICAgICBjLTAuMi0wLjQtMC42LTEuMTktMC42LTEuNzljMC0wLjYtMC4yLTEuNTktMC4yLTIuMzhjMC0wLjk5LDAtMS43OSwwLjItMi4zOGMwLjItMC44LDAuNC0xLjM5LDAuNzktMS43OSAgICAgIGMwLjQtMC42LDAuOC0wLjk5LDEuMTktMS4xOWMwLjYtMC4yLDEuMi0wLjQsMS45OS0wLjRjMC43OSwwLDEuMzksMC4yLDEuOTgsMC40YzAuNiwwLjIsMSwwLjU5LDEuMiwxLjE5ICAgICAgYzAuMTksMC42LDAuNTksMS4xOSwwLjU5LDEuNzljMC4yLDAuNzksMC4yLDEuNTgsMC4yLDIuMzhDMjUuMDEsNTAuMzMsMjQuODEsNTEuMTIsMjQuODEsNTEuNzJ6Ii8+JiN4YTsJCQk8L2c+JiN4YTsJCTwvZz4mI3hhOwk8L2c+JiN4YTs8L2c+JiN4YTs8L3N2Zz4=;" vertex="1" parent="1">
          <mxGeometry x="1170" y="524" width="76" height="66" as="geometry" />
        </mxCell>
        <mxCell id="G0Cbh7PXOb3_7g-0Xa-d-16" style="edgeStyle=orthogonalEdgeStyle;rounded=0;orthogonalLoop=1;jettySize=auto;html=1;" edge="1" parent="1" source="G0Cbh7PXOb3_7g-0Xa-d-14" target="G0Cbh7PXOb3_7g-0Xa-d-2">
          <mxGeometry relative="1" as="geometry" />
        </mxCell>
        <mxCell id="G0Cbh7PXOb3_7g-0Xa-d-14" value="DataSet Kaggle&lt;br&gt;new-york-city-taxi-fare-prediction" style="image;aspect=fixed;html=1;points=[];align=center;fontSize=12;image=img/lib/azure2/general/Download.svg;" vertex="1" parent="1">
          <mxGeometry x="-190" y="116.5" width="64" height="67" as="geometry" />
        </mxCell>
        <mxCell id="G0Cbh7PXOb3_7g-0Xa-d-19" style="edgeStyle=orthogonalEdgeStyle;rounded=0;orthogonalLoop=1;jettySize=auto;html=1;" edge="1" parent="1" source="G0Cbh7PXOb3_7g-0Xa-d-17" target="G0Cbh7PXOb3_7g-0Xa-d-13">
          <mxGeometry relative="1" as="geometry" />
        </mxCell>
        <mxCell id="G0Cbh7PXOb3_7g-0Xa-d-17" value="stream-taxi-data-consumer_2.13-1.0.0-SNAPSHOT.jar" style="shape=image;verticalLabelPosition=bottom;labelBackgroundColor=default;verticalAlign=top;aspect=fixed;imageAspect=0;image=data:image/jpeg,/9j/4AAQSkZJRgABAQEAAAAAAAD/4QAuRXhpZgAATU0AKgAAAAgAAkAAAAMAAAABAAAAAEABAAEAAAABAAAAAAAAAAD/2wBDAAoHBwkHBgoJCAkLCwoMDxkQDw4ODx4WFxIZJCAmJSMgIyIoLTkwKCo2KyIjMkQyNjs9QEBAJjBGS0U+Sjk/QD3/2wBDAQsLCw8NDx0QEB09KSMpPT09PT09PT09PT09PT09PT09PT09PT09PT09PT09PT09PT09PT09PT09PT09PT09PT3/wAARCAHaAdoDASIAAhEBAxEB/8QAHwAAAQUBAQEBAQEAAAAAAAAAAAECAwQFBgcICQoL/8QAtRAAAgEDAwIEAwUFBAQAAAF9AQIDAAQRBRIhMUEGE1FhByJxFDKBkaEII0KxwRVS0fAkM2JyggkKFhcYGRolJicoKSo0NTY3ODk6Q0RFRkdISUpTVFVWV1hZWmNkZWZnaGlqc3R1dnd4eXqDhIWGh4iJipKTlJWWl5iZmqKjpKWmp6ipqrKztLW2t7i5usLDxMXGx8jJytLT1NXW19jZ2uHi4+Tl5ufo6erx8vP09fb3+Pn6/8QAHwEAAwEBAQEBAQEBAQAAAAAAAAECAwQFBgcICQoL/8QAtREAAgECBAQDBAcFBAQAAQJ3AAECAxEEBSExBhJBUQdhcRMiMoEIFEKRobHBCSMzUvAVYnLRChYkNOEl8RcYGRomJygpKjU2Nzg5OkNERUZHSElKU1RVVldYWVpjZGVmZ2hpanN0dXZ3eHl6goOEhYaHiImKkpOUlZaXmJmaoqOkpaanqKmqsrO0tba3uLm6wsPExcbHyMnK0tPU1dbX2Nna4uPk5ebn6Onq8vP09fb3+Pn6/9oADAMBAAIRAxEAPwD2WiiigAooooAKKKKACiiigAooooAKKKKACiiigAooooAKKKKACiiigAooooAKKKKACiiigAooooAKKKKACiiigAooooAKKKKACiiigAooooAKKKKACiiigAooooAKKKKACiiigAooooAKKKKACiiigAooooAKKKKACiiigAooooAKKKKACiiigAooooAKKKKACiiigAooooAKKKKACiiigAooooAKKKKACiiigAooooAKKKKACiiigAooooAKKKKACiiigAooooAKKKKACiiigAooooAKKKKACiiigAooooAKKKKACiiigAooooAKKKKACiiigAooooAKKKKACiiigAooooAKKKKACiiigAooooAKKKKACiiigAooooAKKKKACiiigAooooAKKKKACiiigAooooAKKKKACiiigAooooAKKKKACiiigAooooAKKKKACiiigAooooAKKKKACiiigAooooAKKKKACiiigAooooAKKKKACiiigAooooAKKKKACiiigAooooAKKKKACiiigAooooAKKKKACiiigAooooAKKKKACiiigAooooAKKKKACiiigAooooAKKKKACiiigAooooAKKKKACiiigAooooAKKKKACiiigAooooAKKKKACiiigAooooAKKKKACiiigAooooAKKKKACiiigAooooAKKKKACiiigAooooAKKKKACiiigAooooAKKKKACiiigAooooAKKKKACiiigAooooAKKKKACiiigAooooAKKKKACiiigAooooAKKKKACiiigAooooAKKKKACiiigAooooAKKKKACiiigAooooAKKKKACiiigAooooAKKKKACiiigAooooAKKKKACiiigAooooAKKKKACiiigAooooAKKKKACiiigAooooAKKKKACiiigAooooAKKKKACiiigAooooAKKKKACiiigAooooAKKKKACiiigAooooAKKKKACiiigAooooAKKKKACiiigAooooAKKKKACiiigAooooAKKKKACiiigAooooAKKKKACiiigAooooAKKKKACiiigAooooAKKKKACiiigAooooAKKKKACiiigAooooAKKKKACiiigAooooAKKKKACiiigAooooAKKKKACiiigAooooAKKKKACiiigAooooAKKKKACiiigAooooAKKKKACiiigAooooAKKKKACiiigAooooAKKKKACiiigAooooAKKKKACiiigAooooAKKKKACiiigAooooAKKKKACiiigAooooAKKKKACiiigAooooAKKKKACiiigAooooAKKKKACiiigAooooAKKKKACiiigAooooAKKKKACiiigAooooAKKKKACiiigAooooADSE4FBFcF4x1uSW9FnazMscY/ebTjJ9KyrVlSjzM3w+HlXnyI7wEMMggj1FLXmHh/Xp9M1CMSzubZjtdWbIHvXpkciyxrJGwZWGQQeDUUK6rK63LxWFlh5WeqfUkoooroOUKKKKACiiigAooooAKKKKACiiigAooooAKKKKACiiigAooooAKKKKACiiigAooooAKKKKACiiigAooooAKKKKACiiigAooooAKKKKACiiigAooooAKKKKACiiigAooooAKKKKACiiigAooooARjtBJ7V4/qEpn1C5lJyWkb+der6jMINNuJT0WNj+leRRI0s0ackuwHHua8zMHflie1lMbc8yW7tJLKQJICNyh1OOoNdr4H1gTWhsZmAkiP7sHutWvFGj/bdEBiA862XcpA6gDkV59a3MlndR3EJxJG24ZrGzwtVPozoTjj6DWzR7JnHWq09/a2wJmuIowP7zYrzO98R6lfHMlw0a+kZwKzfnlJY7nI5LHmt55gvsK5ywyiT+OVj0a98aaba8ROZ2z0T/GtLS9XtdXgMtq+cHDKeqmvJa7/AMEaZNaWUtxMNpnIKqfQUYfFVKtSzWgsZgqNClzJu51VFFFekeQFFFFABRRRQAUUUUAFFFFABRRRQAUUUUAFFFFABRRRQAUUUUAFFFFABRRRQAUUUUAFFFFABRRRQAUUUUAFFFFABRRRQAUUUUAFFFMMsYkEZkUO3RScE0APopGIUEkgAdzTI7iKUkRyo5HUKwNAElFNZwilmIVQOSTgClVg6hlIIPcHg0ALRUcs8UIBmlSMHoWYD+dODqU3BgVx1BoAdRTBLG0fmCRSn94HinKwZQwIKnuDQAtFRLdQOwVJo2Y9AGBNZPijWJNI08PCoMsh2qT2PrUTmoJyfQunB1JKMd2alze29mm+5njiX1Y4rEvPGumW2REzzsOyDg/jXn11e3F7JvuZnlbPVj0q7pWg3erMPKKLGTyxYcfhXmyxs5u1NHsxyylTjzVpF3V/F93qUbwxqIYHG0r1JH1qr4Xthda9boVyq5Y/hXS2ngK1jAN3PJKe4X5RW/YaPZaaS1pbpGxGMjqfxqoYarOanUexNTG0KVN06C3LuMjB6Vy174Iiu9UkuPOEcDkExqO/f866uiu+dKFRJSVzyqVadJtwdjDt/Cmk2g3G3DlerSHNcj4k1qK6kNnp6LHaxnkqAN5H9K1PGHiMq39n2Un/AF2ZTyP9msPw3oh1jUArhhbR8yEd/avOryUpexpL1PXwsJRi8RiG9Nrl7wr4ca/mS8ukH2VDkKf4yOn4V6EqhVAAwB2plvBHawJDCoVEGFA7VJXdQoqlGy3PLxWJlXnzPboLRRRW5zhRRRQAUUUUAFFFFABRRRQAUUUUAFFFFABRRRQAUUUUAFFFFABRRRQAUUUUAFFFFABRRRQAUUUUAFFFFABRRTWcRoXY4VRkn0oAZcXMNrC0txKkUa9Wc4Arhr74t6VbzNHa2txchTjcMKP1rhvGniyfxLqTJG7LYwsRFHnh/wDaPuapaX4S1nWbb7RY2LyQ84csFBx6Z607DPQrP4vadLIFu7G4gUnG4EMBXe21zFd26T28iyRuMqynIIr5wvrC60y6a2vYGgmAyVcflXf/AAm/tZLqfEch0p15Zz8of/Z9c+1AHqM86W0Ek0p2pGpZj6AV49Jr8OreObLWlnwReCGOAHpGOAT9SSa9Y1fS4tY02WxuHkSGUYcxttJHpWfceD9Jm02GyW2WJISpR4wA42nI+akIf4vvhp3he+mPeMoOe54rhfAejynXLK8tbG7s4YYCLl534mYjjA9O9eg67oNt4g0z7BeNIISysdjYJxWjGgjjVF+6oAFAHB/EfxBEpi8P+aIRdDdPMT/q09PqcVf+Gd6bnwdGHYu8EjxknuAeP0xWzF4a09dQu72aFbie6ILmYB9oHAC56CnaH4ftfD8dxHZlwk8plKscgE+lAHG6P4et/G09/qetXU0qmZo4rZJCohAOPzOK6fX1j0TwPeRwFglvalEJPPTFRSeBtMOptewvc25kffLFFKVSQ+4FauraVBrGmPY3BYRPtztOCcHP9KAPNLnWNR0nwFFpU2kywxzqIVuWlByW6ce9d/qdx/Yfg6WVQM21qAATjoMVLrPh2z1yG1hut4itZVlRVOASvTNT61pEGuaXLYXJcQy4DbDg0AcH8PNEQXVvezaVcxSiEyC6efKyFvRfoa7vWNLj1exe3kO0n7rY6H1qtoXhu30Hd9nubuUFQoWaUsFHsD0rYqZRUk0+pUZOLUlujyjVNCvtII+0x5jJwHXkf/WqhHI8Th43ZHB4ZT0r2VkV1KsoYHsRmsTUPCmmXZMph8pgdzGPjNebUwDTvTZ7NHNU1y1V8zntA8T6rJIlqsAuxnBYk5A9z/jXZ2mpW19JNHbyrI8JAk2HIUntmvHPE3i+Q3EunaHmxsIyUbyzhpT3JPpXZfCS2MXhq4mZcNLcMcnuB0ruo05wjabuzzMTVhUneEbI7yis3XdbtfD+lS3143yIMKo6u3YD3rLHjW0FjY3UkMipeReYCOdvqD71pKSirydkZQhKo+WKuzI8daWILqO+jGEl+VwB/F2/Oqfg3UvsWriBz+7uBsPs3b/Cupm1fRtds5LZriP5xgB+CD+NedzRSWly8ZOHjbG4H06GvJr2p1VVg9H2PdwvNWoOhUTTS6nslFY3hjVDqWkRs7ZljGyTPqK2a9aElNKS6nhVIOEnF9AoooqiAooooAKKKKACiiigAooooAKKKKACiiigAooooAKKKKACiiigAooooAKKKKACiiigAooooAKKKKACiiigArO8Qlx4e1Ax/fFu+PyrRpskayxsjjKsCpHsaAPmQdPwr3L4fazZ6h4YtbaB0We2TZJEDyMd8eh65ry3xd4Wn8MamY2O+2mJaCQDt6H3FZ2javcaFqsN/a48yM8qejDuD9ae4z3DX/B2meJLq2uL5G3wHnacbx/dPtWzbW0NnAkFtEkUSDCqowBWX4X8SW/ifShd26mNgdskRPKn/CtS6uYrO2kuJ2CRxqWZiegFIRDf6ja6Vatc306QQr1Zzj/9deda18XHS4aPRbWOSIcCWbIz+Fcb4p8TXHibU3nmJW3QkQxA8KPX6mtLwz8PdQ8RWwu2lW0tSflLAlm9wPSmMlHxV8Q792bQj+75VdR4b+KcGoTrbaxFHaO3CyqTsJ989KpXHwdPk/6NquZPSSPj9K881LTrjSdQmsrtNssTYYevuPY0AfSMciyoHjYMjDIYHINOrzj4UeITPayaNcNl4fnhJPJXuPwrovGviweFtNjeOMS3U5KxKTwPc+wpCJ/EPi/TPDkDG5nV7j+GBDlifp2rz29+LmrSyN9jtbaCL+HeCzYri8XOq6gSA891cOSQBksTXeaZ8Irq4tkl1G/EDsMmJE3FfqT3pjKFv8WNeiIM0dpMvcFCv8q9D8L+NtP8SoIkbyb0LloW/p6iuE1z4VXen2j3On3YuljUs0bJtYgdcetcNbXMtlcx3Fs7RzRHcrDjBoA+mKx9f8Tad4ctxJfTBXYEpEOWf6UeGtbGt+GrbUSAHdPnAPRhwf5V4l4q1mTXfEFzdycKDsjUH7qikI62b4w3vmHyNMhCZ43yHJrqfDviq51/wpqGo3dulv5QdVCNkEBev51wOh/DXU9b02O9FxBbxyjKK4JJH4V2raPJ4T+GWoWk0qSyrG7FkGASx96YzxrJILMSSSSSe9e6eGJbTw94Gsp7yVYIvKDsznHJ/rXheOAPaug8SeKZNdtrOzjj8mys0CopOSxxjJoAb4q8U3nifUWLuwtFfEEI6Dtn3JrsbTRdRn8CaYHtJBNAXwmPm2E5HFM+HvgRi1trmpHjG+CAr+TNn88V6jWdWmqkXF7M0pVXSmpx3R4zLDLCds0Txn0cEU0kk5JJPqTmvYp7WG5TbNEki+jDNYc/gnS5pC6iWPJ5CtxXlzy+a+F3PZp5tB/Grehh+A2n+3zKoPkEfN7HtXfVT03TLfS7UQWqbVHOSeTVyvRw9N0oKLdzycVWVaq5pWQUUUVsc4UUUUAFFFFABRRRQAUUUUAFFFFABRRRQAUUUUAFFFFABRRRQAUUUUAFFFFABRRRQAUUUUAFFFFABRRRQAUUhYIpZiAoHJPauU174h6PouY45hd3A42RHIX6mgDd1nRbTXdPezvow8bcg91PqK8H8ReH7rw5qb2l0uUzmKUDh1/xr6BtLmK9tYriBg0cqh1YHrmuW+JdpaTeELmW5CiWIhoWPB3Z6D6800B5R4a1248P6zBcwyMsJcCdAeHX/wCtXovxZ1LZ4es7aNjtu5dxx3UDOPxyK8lRWkdFUZYsAAO9d58U5GSTR7Vid0VtllPY8D+lAzC8C6QmseK7WCZQ0MeZZFI4IHb8TivekRY0CooVQOAB0rw/4bahFp/i+Lz3VI542i3N2J6fyxXuVDEFeb/F+yh+wWN4EAm80xlgOSMZ/pXo5IUEkgAdzXi/xJ8TJrWqrZWrq9ran74P3n7/AIChAU/hu7DxvabSRlXBx6YqT4k6n/aXi2VFctDbIIl54z1P6/yrZ+E2iNNfz6vIGCQjyoj2JP3vy4rkfFNnLY+J7+KcHeZS/PoeRR1Gd98J/D4itpdYmVWeX5ISRyoHX869IrhPhXrMF1oJ07cBcWpJK9ypPBru6Qgr558VWq2PivUrdAAizEgDtnmvoGW4ihZBLIqGRtqBjjcfQV8/+LZvtHi3VJM5zOwBHtxTQHofw/mNv8Ob6VidkZmYf9815Hy4JPVjn869U0jNj8F7mUHa0scjAn3bFeZWURlvLeIDJaRVA9eaBn0Vo0P2fRLGLGNkCLj/AICK5/4nXHk+Cblcn966Jx9c/wBK6uJNkaKOiqBXBfF24KaBawAj95OCR64FIR5LDC9xPHDGN0kjBVX1JpHD285UjbLE2CCOhBrV8IwfaPF2lx7cjzwxH05rrvil4WS0kj1ixgKpIxW5CDgN2bHv0pjO68I+IoPEWixTRkCeNQs0fdWH9K3a+fvCPiGTw3rkVyGIt3IS4X1T1+o6173Z3kF/ax3NrKssMg3K6ngikImooooAKKKKACiiigAooooAKKKKACiiigAooooAKKKKACiiigAooooAKKKKACiiigAooooAKKKKACiiigAooooAKKKKACiiigDK8S6a2r+Hb2zjdkkliO0g85HP9MV88yRPbyNFIjJIh2spGMV9N1ynivwFY+JnFwr/AGW7Ucyoo+f/AHvWgDzDw/451bw7bG3tmjlgJyElGdv0qpr/AIo1PxJMrahKvlqfliQYVf8A69dW3wf1EPhdRtivqUOa2dD+E9nY3KXGp3RvCv8AyyCbUNMZzHw68JNrOoLqVzuWztZAygrxKw/oKj+KN0LnxcUGMQxBeK9oggitoVigjWONRhVUYAr568TXH2nxRqkoYlWuG257CgDMz6Hkc8HGK67SPiXrOl2cdsRDcxxjCmQHdj0yK6jwz4L03XfAVoLqFUuJAzLOg+deT37iqMvwcnDnyNWQx543xHP6GgDntc+IOs65bm3d47eBvvJCOW+prN8OeHrnxHqqWdsGSPrJNtyEH+NehaX8IrW3mEmpXz3IHSNF2rXeWVha6bbLBZwRwxKMBUXAouBDomj2+haTDYWufLiH3j1Y9yfeuB+KvhqWZ4tZtI2k2r5c6qMkAdG+navTaRlDAggEHqCKQj5u03U7rSb1LyxlMUydGAyD9fauwj+LesrBsa2tHkA+/gj9K6rxB8MdN1WQzWL/AGGZjuIRcq31H+FYQ+DtzkZ1aHbnnEJ/xpjK3hLV77xZ43t59Vm3i0iaWNUG1VIriL+Y3GoXcx6ySu3617V4Z8B2fhuO4MdxJNcToYzKwAKg+lYZ+Ddkc51W65OfuLQAzXv9B+DdnD0aRI1/M5rgfC9v9q8VaXD/AHrhT+XP9K9m17whDrmg2ultdywR25XDIBlsDHP86y9A+GVnoWsQ6gt/PO8XKq6jFAjtq8l+L97v1iysv7kXmfmcV61XHeJvh3b+JtXN/PqE8LeWECIowAKQHA/DKxa68YRTAnFshc8dc8V7VdW0V5bSW86ho5FKsp7g1znhPwPb+FLm4nhu5bhplCnzFAwBz2rqKAPnjxNocnh7XLixYMYgcxMRwynp+XSus+Gfi4WM6aJd/wCpmfMDk42se30Nd94q8K2viqwS3uHaF423JMgBZfUc+tcmPg3aqQy6zeKwOQwRQRTGeg3F9b2siRzyhHk+6CDzRFfW0xiEc6MZQWjAP3gOtQxaeywWqTXDyyW6lTI3V8rjJ9+9VdP8Pw6dcpMk0jlBhVboBjHHpSEbFFFFABRRRQAUUUUAFFFFABRRRQAUUUUAFFFFABRRRQAUUUUAFFFFABRRRQAUUUUAFFFFABRRRQAUUUUAFFFFABRRRQAUUUUAFFFFADJGKxuw6gEivnW803UZry4l+wXXzyM3+qbnJr6NowPQUAZHhW2az8LabA6lXS3UMCMc4rXoqOWZIInkkYKijJJOMCgCSisbw/4itvEUU8lqrqsMmzLDG7vkVs0k01dFTi4PlkrMKKKKZIUUUUAFFFFABRRRQAUUUUAFFFFABRRRQAUUUUAFFFFABRRRQAUUUUAFFFFABRRRQAUUUUAFFFFABRRRQAUUUUAFFFFABRRRQAUUUUAFFFFABRRRQAUUUUAFFFFABRRRQAUGiuQ+IeqXmlaPC9jO0LvKFZl64wamclGLkzSjSdWahHdnXZ96ie7hiUmSWNcerCvEZ9a1KZMyX9y3/bQise6mlkJMsrufVmJri+vJ7I9z+wJRV5TR7fd+NNDsiVmv4tw7Lk/yrHufilosQPkrcTN6LHj+dePjrTxUyxc+ljWnk9FfE2z0q4+KjykrZWAXPRpX6fgKx73Wb7WC73czFCP9Up+T8q5a1/1oratv9WfpWTrTnuz0aOBoUdYx17na/C//AJB+o/8AXwP/AEGu6rhfhf8A8eGo/wDXwP8A0Gu6r0aP8NHyuYf7zP1CiiitTjCiiigAooooAKKKKACiiigAooooAKKKKACiiigAooooAKKKKACiiigAooooAKKKKACiiigAooooAKKKKACiiigAooooAKKKKACiiigAooooAKKKKACiiigAooooAKKKKACuG+Kf/ICtv+vgfyNdzXGfEuzuLrQojbwvKY5gzBBkgYNZVk3TaR1YGSjiINuyueYP9wVSuPvGi51VIPlkt7lWHBDRkfzqg+rxyn5Yzz6mvJhQqLdH2dXGUGrKSfoWRTxVEXrHoqj8c08SyP6/gK1dGXUwVePTU07d1jcMzKAO5OMVPN4gs7GEjeJZOwQ1h/Yri5O1RwT3NXLPwoZiHuZwAOoUVUacI7u5M6teWlOPzZ7L8OpNLn0Bp9Kd28x90wkPzK+OldaOlcF8KYUt9N1CNAAonA4/3RXe16FJpwVkfKYyLjXkpO7uRXV1DZWz3FzKkUMY3M7nAArzzV/jdodhP5dnBNfDu8Z2j9a5n456/cHVLXRonZIFi82RQeHJPGfpisT4e/DNPGdhPe3F+1tFHJ5aqi7mJ69+1aHMekaF8ZdB1ecQ3W/T2PRpiNv5iu+guIrmFJoJFkicZV0OQRXiOs/Am+twG0fUI7oFsFJhsIHrmvVvB/h4eF/DVrpnmmV4xl29WPXHtQBuUVBd3tvY2zz3UyRRIMsznGK4W5+NPha3mMaSXUwBxuSLg/nQB6DRWD4c8ZaP4piLaZdBnX70bjaw/Cr+qazYaLam41G6jgjUZyx5P0HegC/RXnk3xs8LxSFFa7kAONyxcH8zXR+G/G2jeKgf7MuS0qjLRONrD8KANm9laCyuJUxvjjZhn1AzXg9l8avEs99bwyLZ7ZJVUkRdicete66nzpV5/wBcH/8AQTXyTpn/ACFbT/run/oVAH19GS0ak9SMmnU2MgRJ/uiuc8QePtA8NSeTf3o87G4RRje36dKAOlorzyL42+F5JNrG8jGcbjFx/Ou7sL+31Oyhu7OVZYJlDI47igCxRRRQAUUUUAFFFFABRRRQAUUUUAFFFFABRRRQAUUUUAFFFFABRRRQAUUUUAFFFFABRRRQAUUUUAFFFFABRRRQAUUUUAFY3iPxDb+HbJLm4jkkDtsVU9a2a4b4pf8AICtv+u4/kazqycYNrodGEpqrWjCWzZmX/wARFnQ+TpkWT0MoDZrktT8QSXhbzNP00ZOcrbLmqzfcFUrj7xryViKk3qz7F5dh6K92P6lcojuW8tAT2AwKlTA6Ypg608USk31KhFLZFq1/1g61tWv3PwrEtf8AWD61s27qkJZmCgDkk9KUDU7b4X/8eOo/9fA/9BrufauR+HmmXGn6VcSXKhftEu9FBB+XHB4rrhXr0U1BXPisc1LETaelzyf4yeC77Vmh1nTYfOMEWydF+9gc5A74ryjQPFeseF5nbSrt4A5+eMjKtj1Br6rmmhhUGaREVjtG44BJ7VymvfDDw3rzmSWzNtOR/rLY7Mn3HQ1ochzPhr436fdCKDXoHtZcYadBlCfp1A/OvTrW+t76zju7WZZbeRd6yKcgivmjx54Gn8F6hHGZvPtZ8mGUjBOOxHrXo/wZ1O4u/BeqWLEstqWEPqNyk4/P+dAHB/EzxlL4m8QSRW8z/wBn2x2Rxg4BI6t75rX8O/BXUdX02K9vb2O0WZA8ce0s2D0z6V5xLlbxxJnIkO7P15r660145NMtWiIMZhQqR6YoA4j4efDSPwjcz3l7IlxelisToThU+nqaofFD4d6j4q1exutK2/dMc3mSYVfQ4/PpXp/HtmvIfib8TtR0XWn0fRJI4zGn76Yrubcewz0xQBn3HwOFrYEz67bR3B+7vG1fpya870e+uPDnii3nhl2y2txtZkOQQDg/UEZrstF8CeLfG8aXWqXs8VpINySXDlt2e4X0rgbq1+w6vNaltxgnMe71w2KAPrG7mS40G4ljOUe3ZgfYqa+TdM/5Ctp/13T/ANCr6ksf+RJT/ryP/oNfLemf8hW0/wCu6f8AoVAH1zJAt1ZNC+dkke04ODgivFZfgfqd3rl0TexQ2PmkxyOxd2X/AB7c17Bq2qRaJoVxqE/+rt4S5HrgV4FqfxG8VeLtUFpp00lus7bIra24J+p6k0AJ47+HUfhS0S7tdThukLbHiyA6n1x6VtfA7XLiPX59IkmdreWEvHGTkKy9SPTisTxN8OtX0Pw6+sazdhpd6r5Wdx596f8ABf8A5KLb/wDXCX/0GgD6NooooAKKKKACiiigAooooAKKKKACiiigAooooAKKKKACiiigAooooAKKKKACiiigAooooAKKKKACiiigAooooAKKKKAEFcP8Uv8AkBWv/XcfyNdwfbrWbrlnpd3ZbNYWE24OR5rYGaipHmi13N8LU9lWjO17M8Qcjyx0/E1QuJEGfnX867/UvDHgFwxF48Tg5/dzMwrjtS8OeHoixstZuDg8K1uSPzrzVh4Q3kj6p5jUqqypteqMj7TEP4s/SnC5B6An68VD9iCOQsm9AeGxjNTx26Ac805KlHzLg6st1Yik1OaLPlhQegOM1T8jUNVlAG9gfU8Ctu1hi84fu169xmt61AEZwAOOMDFEasV8KCeFlU/iSduyOu+EMctvod5bzSmQRz4UE/d+UcV6BXDfC/8A48tR/wCu4/8AQRXcmvQotuCbPlsdFRxEktjw/wCNaa82sQu0bjS4kBiaEnAPq3oc1z2h/FzxFolt9nMkV3GOnngsw/Gvo+SJJUKSIrowwVYZB/CsS58DeG7p98+i2bN6iPH8q0OQ+cdd8Rav411VJLstNN92KGNeF+gr3j4XeFZfDHhUJd4F1dN50i/3eOF/L+ddDp3hvR9Iffp+m2tu+PvJGAfzrToA+d/ir4Hl0DW2v7ONnsLslsgf6t+4P86h8MfFrWfDmmJYCGC7giGI/NyCo+o7V9FyQxyoUkjV0bqrDINYcvgTwzNKZJNEsy55JEeP5UAcF8N/iRq3iHxRLZ6jB5kNyC6NGpxDgdPof51xHxc0ibTfHV3PICY73EyNj8Mfhivoqx02z02EQ2NrDbxjosaBRTL/AEmx1WHytQtIbmP0lQNigDwux+NOs2miQadb2FsZooxEkvJOAMDj1rgr6K6i1Z/tyMly0geRWGDluf619S6f4S0LSZvNsdKtYZP7ypz+Zqe58P6TeTtPc6baSytyXeIEn8aAIdIiNz4Tt4QcGW1259Mrivlm8tptH1iWCRSsttMRgjuDX11HGkUaxxqFRRgKBwKzNT8LaLrMgk1LTLa4kAxvdOfzoA5Nb24+IXwiuHCLHdyxMu1DwWQ/1xXhuh6vd+FPEMN9HCPtFq5zFKMexB9K+qdN0qy0e1Ftp1tHbwg5CIMDNUdQ8IaFqtwbi+0q1mmPV2Tk/jQB4d4n8da38QrJrOCwWG0th50oiy3TuT6CmfBb/kotv/1wl/8AQa9/tNG07T7Z7e0sbeGFxhkSMAN9fWm2mg6XYTie00+1glAIDxxhTg9eRQBoUUUUAFFFFABRRRQAUUUUAFFFFABRRRQAUUUUAFFFFABRRRQAUUUUAFFFFABRRRQAUUUUAFFFFABRRRQAUUUUAFFFFABXD/FP/kBW3/XcfyNdxXDfFP8A5AVt/wBdx/I1jX/hs7MB/vMPU82f7gqlcfeNXX+4KpXBGTzXiU9z7qvsQinimxo0hwis30Gav22jaldf6iwuZPpGcVu4t7I4+eMdW7Edr/rR9a2rb/VH6Ve0z4e61OVd1igQ8nzDyPwrrNO+H0cKj7ZdNIe6oMA1rToTfQ56uZYen9q78iH4Xg/YL9sEAz9SOvyiu7qvaWcFjAIbeNY0HYCrFelTjyxSPk8TVVarKoluFFFFWYhRRRQAUUUUAFFFFABRRRQAUUUUAFFFFABRRRQAUUUUAFFFFABRRRQAUUUUAFFFFABRRRQAUUUUAFFFFABRRRQAUUUUAFFFFABRRRQAUUUUAFFFFABRRRQAUUUUAFFFFABXOeMPDk3iTTore3nSFkkDlnBNdHSc0mlJWZdOcqclKL1RyWn/AA70u1hC3W66fuzHH6CteDwto1sd0em24b1KA1rYpcVCpQjsjWeLr1Pim38ytFYW0H+pt4Yx/soBVgKB0AFLRV2SMHJvcKKKKYgooooAKKKKACiiigAooooAKKKKACiiigAooooAKKKKACiiigAooooAKKKKACiiigAooooAKKKKACiiigAooooAKKKKACiiigAooooAKKKKACiiigAooooAKKKKACiiigAooooAKKKKACiiigAooooAKKKKACiiigAooooAKKKKACiiigAooooAKKKKACiiigAooooAKKKKACiiigAooooAKKKKACiiigAooooAKKKKACiiigAooooAKKKKACiiigAooooAKKKKACiiigAooooAKKKKACiiigAooooAKKKKACiiigAooooAKKKKACiiigAooooAKKKKACiiigAooooAKKKKACiiigAooooAKKKKACiiigAooooAKKKKACiiigAooooAKKKKACiiigAooooAKKKKACiiigAooooAKKKKACiiigAooooAKKKKACiiigAooooAKKKKACiiigAooooAKKKKACiiigAooooAKKKKACiiigAooooAKKKKACiiigAooooAKKKKACiiigAooooAKKKKACiiigAooooAKKKKACiiigAooooAKKKKACiiigAooooAKKKKACiiigAooooAKKKKACiiigAooooAKKKKACiiigAooooAKKKKACiiigAooooAKKKKACiiigAooooAKKKKACiiigAooooAKKKKACiiigAooooAKKKKACiiigAooooAKKKKACiiigAooooAKKKKACiiigAooooAKKKKACiiigAooooAKKKKACiiigAooooAKKKKACiiigAooooAKKKKACiiigAooooAKKKKACiiigAooooAKKKKACiiigAooooAKKKKACiiigAooooAKKKKACiiigAooooAKKKKACiiigAooooAKKKKACiiigAooooAKKKKACiiigAooooAKKKKACiiigAooooAKKKKACiiigAooooAKKKKACiiigAooooAKKKKACiiigAooooAKKKKACiiigAooooAKKKKACiiigAooooAKKKKACiiigAooooAKKKKACiiigAooooAKKKKACiiigAooooAKKKKACiiigAooooAKKKKACiiigAooooAKKKKACiiigAooooAKKKKACiiigAooooAKKKKACiiigAooooAKKKKACiiigAooooAKKKKACiiigAooooAKKKKACiiigAooooAKKKKACiiigAooooAKKKKACiiigAooooAKKWigBKKWigBKKWigBKKWigBKKWigBKKWigBKKWigBKKWigBKKWigBKKWigBKKWigBKKWigBKKWigBKKWigBKKWigBKKWigBKKWigBKKWigBKKWigBKKWigBKKWigBKKWigBKKWigBKKWigBKKWigBKKWigBKKWigBKKWigBKKWigBKKWigD/9k=;" vertex="1" parent="1">
          <mxGeometry x="888" y="510" width="94" height="94" as="geometry" />
        </mxCell>
      </root>
    </mxGraphModel>
  </diagram>
</mxfile>
